#!OML:ASF F:\VICON\USERDATA\INSTALL\rory3\rory3.ASF
:FULLY-SPECIFIED
:DEGREES
159
root 0.780094872287365 17.894598476770007 39.79006826586206 2.559618441081556 3.052512136363598 0.7743530438687936
lfemur -14.928649873159493 2.0690594885663933 -21.37852094501689
ltibia 45.966521150519945
lfoot 1.4577950372893311 -11.144333688026977
ltoes -9.53173284183028
rfemur -25.797000952749983 5.0142497815704195 27.852062105596236
rtibia 55.536551152041156
rfoot 2.1314802261825196 -4.318090104740357
rtoes -0.9727166262397715
lowerback 14.415216369984094 -0.2727564718694219 0.36432734005286616
upperback -0.8790104706195296 -0.14706619351713313 0.628094080851666
thorax -9.604440495686205 -0.04807512239492018 0.35965213138734564
lowerneck -20.09078461221788 -4.754210223726733 -1.919614167981801
upperneck 15.633078147820925 -6.225226901940494 3.035762585079004
head 8.252327907546805 -2.9920329431520916 0.516803286965705
lclavicle -1.9521729781560437e-15 1.1013548979497733e-15
lhumerus -47.46468726138609 -8.071768020182443 97.31565825643729
lradius 110.37664762523842
lwrist 46.366784356213024
lhand -17.821911787474356 6.555570039133025
lfingers 7.125020000000001
lthumb 8.38008966748681 36.15367913784221
rclavicle -1.952176533109819e-15 1.1013521049827522e-15
rhumerus -49.226771634991216 15.288206681346315 -102.45627670040706
rradius 112.98839534078729
rwrist -15.963579597451108
rhand -24.042074888672854 -104.32723224519
rfingers 7.125020000000001
rthumb 3.8921525472901015 14.253819143957807
160
root 0.7715803693978549 17.8699889706578 37.62833575520443 2.4350117503226656 2.5101295727455044 0.5228389036090055
lfemur -16.46831871514334 1.6982187285940886 -22.565094977044758
ltibia 46.59199076363376
lfoot 0.6150464826198676 -11.93502921970589
ltoes -10.215242797915826
rfemur -26.087351369351946 4.98928148700433 27.67419851959091
rtibia 54.32002423645385
rfoot 1.9398039384699564 -4.112844425976267
rtoes -0.6334661154651713
lowerback 14.20584586954713 -0.38445230493503074 0.21531101931631125
upperback -0.9358604457265497 -0.2652916755650987 0.7101561383316644
thorax -9.504749236490834 -0.06847375872927425 0.44545978409028103
lowerneck -20.073075086706837 -4.692497885476994 -1.9059196190672192
upperneck 15.664703478153099 -6.131054855758846 3.0263954488431883
head 8.229781439920849 -3.02364085457913 0.5027129950099988
lclavicle -1.9521729781560437e-15 1.1013548979497733e-15
lhumerus -47.24435889894904 -8.166247643237325 97.15253022448951
lradius 110.68417625321892
lwrist 46.732030936502966
lhand -17.776957189912057 6.510886595625792
lfingers 7.125020000000001
lthumb 8.45664664456314 36.17355018087357
rclavicle -1.952176533109819e-15 1.1013521049827522e-15
rhumerus -49.63827634211439 15.102525460444447 -102.39832564140929
rradius 112.77437341054855
rwrist -15.628382755277581
rhand -23.948783834422553 -103.20466839684325
rfingers 7.125020000000001
rthumb 4.006875282999473 14.544269415150794
161
root 0.7851801433921153 17.912449712928403 38.9455436332185 2.577687036159995 2.6693454608837395 0.6033698630508948
lfemur -14.387892464632015 2.082517425237168 -21.92063434492633
ltibia 47.211927359747065
lfoot 1.0247138862498832 -11.843143612675576
ltoes -9.89175988789584
rfemur -26.49379898125669 5.01358950027104 27.67379107331487
rtibia 53.47276799771631
rfoot 2.6942575938218787 -3.971059658019819
rtoes -0.742257911005703
lowerback 14.12543354200376 -0.44199608693710685 0.28103972633295715
upperback -0.9844296741704053 -0.2981423812608599 0.8231011039827284
thorax -9.594153987756313 -0.15673113824645651 0.2851235048456562
lowerneck -20.17473346982043 -4.752740146296474 -1.9289769220831576
upperneck 15.595343658639871 -6.217225772680521 2.9314455608008116
head 8.247659493594337 -3.014774454463977 0.5062840086428193
lclavicle -1.9521729781560437e-15 1.1013548979497733e-15
lhumerus -46.7637186798625 -8.127456417278895 97.25427589726853
lradius 111.2654805012569
lwrist 46.746445843681926
lhand -17.78080131567945 6.429106853539202
lfingers 7.125020000000001
lthumb 8.46753442382457 36.08987982353098
rclavicle -1.952176533109819e-15 1.1013521049827522e-15
rhumerus -49.960075726950265 14.907841230227495 -102.31583292217186
rradius 112.6147433222882
rwrist -15.83556690647084
rhand -24.061599027955637 -106.81478781102268
rfingers 7.125020000000001
rthumb 3.930694680586239 14.009841864567528
162
root 0.7858668022269399 17.921501418970852 38.78746797680824 2.541261051012782 2.6536115317516122 0.6179319033722199
lfemur -16.884034055074533 1.4725200019442126 -22.923994290293813
ltibia 48.19097072547084
lfoot 1.1007739290878464 -11.907294588098154
ltoes -9.603233996825914
rfemur -26.694761922431887 4.746771080139868 27.52612757190644
rtibia 53.17164563299666
rfoot 4.2263613239830775 -3.881635321453764
rtoes -0.9188534283366367
lowerback 13.985513729093825 -0.5306179801146738 0.18690762717120069
upperback -1.051554152200591 -0.35556799903599656 0.9043396133499074
thorax -9.403199511722532 -0.056122229610575225 0.6983712188643099
lowerneck -20.21416644297868 -4.799051501536979 -1.9385588210088434
upperneck 15.674753751272993 -6.1569081177429235 2.9601774314286238
head 8.23325826186 -3.033839382894184 0.5010053477276635
lclavicle -1.9521729781560437e-15 1.1013548979497733e-15
lhumerus -46.441855841067756 -8.35225452731591 97.27258051077996
lradius 111.56906997019684
lwrist 46.86709173770169
lhand -17.73593585156156 6.335173431227377
lfingers 7.125020000000001
lthumb 8.50530811167201 36.07429051767736
rclavicle -1.952176533109819e-15 1.1013521049827522e-15
rhumerus -50.24713451955652 14.71304628940891 -102.22658598731594
rradius 112.65068939598001
rwrist -15.829947121326388
rhand -23.936770456502973 -102.32762750532282
rfingers 7.125020000000001
rthumb 3.8194608925828386 13.794953122287787
